<svg width="76" height="20" viewBox="0 0 76 20" fill="none" xmlns="http://www.w3.org/2000/svg">
<rect x="16.3594" y="17.6533" width="21.6667" height="1.66667" rx="0.833333" transform="rotate(-135 16.3594 17.6533)" fill="#444952"/>
<path fill-rule="evenodd" clip-rule="evenodd" d="M15.63 12.2105C16.7167 10.7631 17.5 9.2944 17.5 7.33333C17.5 3.28324 14.1415 0 10 0C8.15318 0 6.46206 0.652883 5.15503 1.73551L8.75252 5.333C9.11967 5.12119 9.54568 5 10 5C11.3807 5 12.5 6.11929 12.5 7.5C12.5 7.95432 12.3788 8.38033 12.167 8.74748L15.63 12.2105ZM7.66567 6.60317C7.55866 6.88156 7.5 7.18393 7.5 7.5C7.5 7.91104 7.85199 8.1272 8.20877 8.3463C8.40777 8.46851 8.60826 8.59164 8.75 8.75C8.89934 8.91686 9.00548 9.10789 9.10641 9.28956C9.31487 9.66474 9.50114 10 10 10C10.3161 10 10.6184 9.94134 10.8968 9.83432L14.5829 13.5204C14.4995 13.6208 14.4154 13.7219 14.3307 13.8236L14.3306 13.8237C13.4624 14.8664 12.5328 15.9831 11.7045 17.3333C11.2957 18 11.104 18.56 10.9575 18.992L10.9571 18.993C10.7363 19.6403 10.6136 20 10 20C9.3864 20 9.26371 19.6403 9.04286 18.993L9.04252 18.992C8.89604 18.56 8.70428 18 8.29545 17.3333C7.46715 15.9831 6.53764 14.8664 5.66939 13.8237L5.66926 13.8236C3.9661 11.7775 2.5 10.0162 2.5 7.33333C2.5 5.68341 3.05737 4.16075 3.99798 2.93548L7.66567 6.60317Z" fill="#444952"/>
<path d="M31.334 10H44.6673M44.6673 10L39.6673 5M44.6673 10L39.6673 15" stroke="#ABB6CC" stroke-width="1.66667" stroke-linecap="round" stroke-linejoin="round"/>
<path fill-rule="evenodd" clip-rule="evenodd" d="M58.5 7.33333C58.5 3.28324 61.8585 0 66 0C70.1415 0 73.5 3.28324 73.5 7.33333C73.5 10.0162 72.0339 11.7775 70.3307 13.8236L70.3306 13.8237C69.4624 14.8664 68.5328 15.9831 67.7045 17.3333C67.2957 18 67.104 18.56 66.9575 18.992L66.9571 18.993C66.7363 19.6403 66.6136 20 66 20C65.3864 20 65.2637 19.6403 65.0429 18.993L65.0425 18.992C64.896 18.56 64.7043 18 64.2955 17.3333C63.4672 15.9831 62.5376 14.8664 61.6694 13.8237L61.6693 13.8236C59.9661 11.7775 58.5 10.0162 58.5 7.33333ZM66 10C67.3807 10 68.5 8.88071 68.5 7.5C68.5 6.11929 67.3807 5 66 5C64.6193 5 63.5 6.11929 63.5 7.5C63.5 8.88071 64.6193 10 66 10Z" fill="#444952"/>
</svg>
