<svg width="36" height="36" viewBox="0 0 36 36" fill="none" xmlns="http://www.w3.org/2000/svg">
<path d="M18 0C8.064 0 0 8.064 0 18C0 27.936 8.064 36 18 36C27.936 36 36 27.936 36 18C36 8.064 27.936 0 18 0Z" fill="#EB135B" fill-opacity="0.12"/>
<path d="M18 5C10.824 5 5 10.824 5 18C5 25.176 10.824 31 18 31C25.176 31 31 25.176 31 18C31 10.824 25.176 5 18 5Z" fill="#EB135B" fill-opacity="0.12"/>
<path d="M18 11C14.136 11 11 14.136 11 18C11 21.864 14.136 25 18 25C21.864 25 25 21.864 25 18C25 14.136 21.864 11 18 11Z" fill="white"/>
<path d="M18 13C15.24 13 13 15.24 13 18C13 20.76 15.24 23 18 23C20.76 23 23 20.76 23 18C23 15.24 20.76 13 18 13Z" fill="#EB1C4E" fill-opacity="0.92"/>
</svg>
