<svg width="25" height="24" viewBox="0 0 25 24" fill="none" xmlns="http://www.w3.org/2000/svg">
<g clip-path="url(#clip0_1_582)">
<circle cx="12.0859" cy="12" r="12" fill="#E1EAFF"/>
<path d="M8.08594 14C7.53365 14 7.08594 14.4477 7.08594 15C7.08594 15.5523 7.53365 16 8.08594 16V14ZM12.0859 16C12.6382 16 13.0859 15.5523 13.0859 15C13.0859 14.4477 12.6382 14 12.0859 14V16ZM8.37165 18C8.37165 18.5523 8.81937 19 9.37165 19C9.92394 19 10.3717 18.5523 10.3717 18H8.37165ZM8.08594 11C7.53365 11 7.08594 11.4477 7.08594 12C7.08594 12.5523 7.53365 13 8.08594 13V11ZM10.4562 6.01477L10.31 5.02552L10.4562 6.01477ZM9.38748 7.01228L10.3734 7.17958V7.17958L9.38748 7.01228ZM8.08594 16H12.0859V14H8.08594V16ZM10.9145 7H13.8717V5H10.9145V7ZM8.37165 7.44V12H10.3717V7.44H8.37165ZM8.37165 12V18H10.3717V12H8.37165ZM13.8717 11H9.37165V13H13.8717V11ZM9.37165 11H8.08594V13H9.37165V11ZM16.0859 9C16.0859 10.0407 15.1607 11 13.8717 11V13C16.133 13 18.0859 11.273 18.0859 9H16.0859ZM13.8717 7C15.1607 7 16.0859 7.95929 16.0859 9H18.0859C18.0859 6.727 16.133 5 13.8717 5V7ZM10.9145 5C10.7114 5 10.501 4.99729 10.31 5.02552L10.6025 7.00402C10.5955 7.00506 10.6052 7.00289 10.6588 7.00152C10.7153 7.00008 10.79 7 10.9145 7V5ZM10.3717 7.44C10.3717 7.32271 10.3718 7.25618 10.3732 7.20685C10.3746 7.16084 10.3765 7.16133 10.3734 7.17958L8.40158 6.84497C8.3681 7.04223 8.37165 7.25788 8.37165 7.44H10.3717ZM10.31 5.02552C9.37097 5.16434 8.5676 5.86661 8.40158 6.84497L10.3734 7.17958C10.3816 7.13101 10.4412 7.02786 10.6025 7.00402L10.31 5.02552Z" fill="#867FFF"/>
</g>
<defs>
<clipPath id="clip0_1_582">
<rect width="24" height="24" fill="white" transform="translate(0.0859375)"/>
</clipPath>
</defs>
</svg>
