<svg width="21" height="20" viewBox="0 0 21 20" fill="none" xmlns="http://www.w3.org/2000/svg">
<path d="M3.56683 9.44444H2.56683H3.56683ZM3.56684 10.8333L2.86251 11.5432C3.25239 11.93 3.88128 11.93 4.27116 11.5432L3.56684 10.8333ZM5.671 10.1543C6.06306 9.76534 6.06554 9.13218 5.67656 8.74012C5.28757 8.34807 4.65441 8.34558 4.26235 8.73457L5.671 10.1543ZM2.87132 8.73457C2.47926 8.34558 1.8461 8.34807 1.45711 8.74012C1.06813 9.13218 1.07061 9.76534 1.46267 10.1543L2.87132 8.73457ZM15.6938 6.35705C15.9831 6.82754 16.599 6.97447 17.0694 6.68522C17.5399 6.39598 17.6869 5.7801 17.3976 5.30961L15.6938 6.35705ZM10.566 1.5C6.15563 1.5 2.56683 5.04946 2.56683 9.44444H4.56683C4.56683 6.16881 7.24535 3.5 10.566 3.5V1.5ZM2.56683 9.44444L2.56684 10.8333H4.56684L4.56683 9.44444L2.56683 9.44444ZM4.27116 11.5432L5.671 10.1543L4.26235 8.73457L2.86251 10.1235L4.27116 11.5432ZM4.27116 10.1235L2.87132 8.73457L1.46267 10.1543L2.86251 11.5432L4.27116 10.1235ZM17.3976 5.30961C15.9931 3.02502 13.4578 1.5 10.566 1.5V3.5C12.7393 3.5 14.6406 4.64392 15.6938 6.35705L17.3976 5.30961Z" fill="#ABB6CC"/>
<path d="M17.4279 9.16675L18.1309 8.45553C17.7413 8.07049 17.1145 8.07049 16.725 8.45553L17.4279 9.16675ZM15.3198 9.84442C14.927 10.2327 14.9233 10.8658 15.3115 11.2586C15.6997 11.6514 16.3329 11.6551 16.7257 11.2669L15.3198 9.84442ZM18.1301 11.2669C18.5229 11.6551 19.1561 11.6514 19.5443 11.2586C19.9326 10.8658 19.9289 10.2327 19.5361 9.84441L18.1301 11.2669ZM5.25041 13.6416C4.96037 13.1716 4.34424 13.0257 3.87424 13.3158C3.40425 13.6058 3.25837 14.2219 3.54842 14.6919L5.25041 13.6416ZM10.402 18.5001C14.8235 18.5001 18.4279 14.9542 18.4279 10.5556H16.4279C16.4279 13.8277 13.741 16.5001 10.402 16.5001V18.5001ZM18.4279 10.5556V9.16675H16.4279V10.5556H18.4279ZM16.725 8.45553L15.3198 9.84442L16.7257 11.2669L18.1309 9.87797L16.725 8.45553ZM16.725 9.87797L18.1301 11.2669L19.5361 9.84441L18.1309 8.45553L16.725 9.87797ZM3.54842 14.6919C4.95844 16.9767 7.50232 18.5001 10.402 18.5001V16.5001C8.21725 16.5001 6.30749 15.3545 5.25041 13.6416L3.54842 14.6919Z" fill="#ABB6CC"/>
</svg>
