<svg width="20" height="20" viewBox="0 0 20 20" fill="none" xmlns="http://www.w3.org/2000/svg">
<path d="M3.06683 9.44444H2.06683H3.06683ZM3.06684 10.8333L2.36251 11.5432C2.75239 11.93 3.38128 11.93 3.77116 11.5432L3.06684 10.8333ZM5.171 10.1543C5.56306 9.76534 5.56554 9.13218 5.17656 8.74012C4.78757 8.34807 4.15441 8.34558 3.76235 8.73457L5.171 10.1543ZM2.37132 8.73457C1.97926 8.34558 1.3461 8.34807 0.957113 8.74012C0.568126 9.13218 0.570613 9.76534 0.962668 10.1543L2.37132 8.73457ZM15.1938 6.35705C15.4831 6.82754 16.099 6.97447 16.5694 6.68522C17.0399 6.39598 17.1869 5.7801 16.8976 5.30961L15.1938 6.35705ZM10.066 1.5C5.65563 1.5 2.06683 5.04946 2.06683 9.44444H4.06683C4.06683 6.16881 6.74535 3.5 10.066 3.5V1.5ZM2.06683 9.44444L2.06684 10.8333H4.06684L4.06683 9.44444L2.06683 9.44444ZM3.77116 11.5432L5.171 10.1543L3.76235 8.73457L2.36251 10.1235L3.77116 11.5432ZM3.77116 10.1235L2.37132 8.73457L0.962668 10.1543L2.36251 11.5432L3.77116 10.1235ZM16.8976 5.30961C15.4931 3.02502 12.9578 1.5 10.066 1.5V3.5C12.2393 3.5 14.1406 4.64392 15.1938 6.35705L16.8976 5.30961Z" fill="#00C293"/>
<path d="M16.9279 9.16669L17.6309 8.45547C17.2413 8.07043 16.6145 8.07043 16.225 8.45547L16.9279 9.16669ZM14.8198 9.84435C14.427 10.2326 14.4233 10.8657 14.8115 11.2585C15.1997 11.6513 15.8329 11.655 16.2257 11.2668L14.8198 9.84435ZM17.6301 11.2668C18.0229 11.655 18.6561 11.6513 19.0443 11.2585C19.4326 10.8657 19.4289 10.2326 19.0361 9.84435L17.6301 11.2668ZM4.75041 13.6415C4.46037 13.1715 3.84424 13.0256 3.37424 13.3157C2.90425 13.6057 2.75837 14.2219 3.04842 14.6919L4.75041 13.6415ZM9.90195 18.5C14.3235 18.5 17.9279 14.9541 17.9279 10.5556H15.9279C15.9279 13.8276 13.241 16.5 9.90195 16.5V18.5ZM17.9279 10.5556V9.16669H15.9279V10.5556H17.9279ZM16.225 8.45547L14.8198 9.84435L16.2257 11.2668L17.6309 9.87791L16.225 8.45547ZM16.225 9.87791L17.6301 11.2668L19.0361 9.84435L17.6309 8.45547L16.225 9.87791ZM3.04842 14.6919C4.45844 16.9767 7.00232 18.5 9.90195 18.5V16.5C7.71725 16.5 5.80749 15.3544 4.75041 13.6415L3.04842 14.6919Z" fill="#00C293"/>
</svg>
