<svg width="20" height="20" viewBox="0 0 20 20" fill="none" xmlns="http://www.w3.org/2000/svg">
<path fill-rule="evenodd" clip-rule="evenodd" d="M18.3337 10.0001C18.3337 5.39771 14.6027 1.66675 10.0003 1.66675C5.39795 1.66675 1.66699 5.39771 1.66699 10.0001C1.66699 14.6025 5.39795 18.3334 10.0003 18.3334C14.6027 18.3334 18.3337 14.6025 18.3337 10.0001ZM10.0003 5.20841C10.3455 5.20841 10.6253 5.48824 10.6253 5.83342V10.8334C10.6253 11.1786 10.3455 11.4584 10.0003 11.4584C9.65515 11.4584 9.37533 11.1786 9.37533 10.8334V5.83342C9.37533 5.48824 9.65515 5.20841 10.0003 5.20841ZM10.0003 14.1667C10.4606 14.1667 10.8337 13.7937 10.8337 13.3334C10.8337 12.8732 10.4606 12.5001 10.0003 12.5001C9.54009 12.5001 9.16699 12.8732 9.16699 13.3334C9.16699 13.7937 9.54009 14.1667 10.0003 14.1667Z" fill="#FF9900"/>
</svg>
