<svg width="14" height="14" viewBox="0 0 14 14" fill="none" xmlns="http://www.w3.org/2000/svg">
<path d="M8.41604 2.24719L8.97217 1.69107C9.89359 0.769644 11.3875 0.769644 12.3089 1.69107C13.2304 2.61249 13.2304 4.10641 12.3089 5.02783L11.7528 5.58396M8.41604 2.24719C8.41604 2.24719 8.48556 3.42897 9.5283 4.47171C10.571 5.51445 11.7528 5.58396 11.7528 5.58396M8.41604 2.24719L3.30329 7.35994C2.957 7.70624 2.78385 7.87939 2.63494 8.0703C2.45928 8.29551 2.30868 8.53919 2.18581 8.79701C2.08164 9.01558 2.00421 9.24789 1.84934 9.71249L1.19308 11.6812M11.7528 5.58396L6.64006 10.6967C6.29376 11.043 6.12061 11.2162 5.9297 11.3651C5.70449 11.5407 5.46082 11.6913 5.20299 11.8142C4.98442 11.9184 4.75211 11.9958 4.28751 12.1507L2.31875 12.8069M2.31875 12.8069L1.8375 12.9673C1.60887 13.0435 1.35679 12.984 1.18638 12.8136C1.01596 12.6432 0.956457 12.3911 1.03267 12.1625L1.19308 11.6812M2.31875 12.8069L1.19308 11.6812" stroke="#ABB6CC" stroke-width="2"/>
</svg>
