<svg width="20" height="20" viewBox="0 0 20 20" fill="none" xmlns="http://www.w3.org/2000/svg">
<path d="M7.91797 8.334C9.29868 8.334 10.418 7.21472 10.418 5.834C10.418 4.45329 9.29868 3.33401 7.91797 3.33401C6.53726 3.33401 5.41797 4.45329 5.41797 5.834C5.41797 7.21472 6.53726 8.334 7.91797 8.334Z" stroke="#ABB6CC" stroke-width="2"/>
<path d="M12.082 16.666C10.7013 16.666 9.58203 15.5467 9.58203 14.166C9.58203 12.7853 10.7013 11.666 12.082 11.666C13.4627 11.666 14.582 12.7853 14.582 14.166C14.582 15.5467 13.4627 16.666 12.082 16.666Z" stroke="#ABB6CC" stroke-width="2"/>
<path d="M10.5 5.86719L18.3333 5.86719" stroke="#ABB6CC" stroke-width="2" stroke-linecap="round"/>
<path d="M9.5 14.2012L1.66667 14.2012" stroke="#ABB6CC" stroke-width="2" stroke-linecap="round"/>
<path d="M1.66797 5.86719L5.33464 5.86719" stroke="#ABB6CC" stroke-width="2" stroke-linecap="round"/>
<path d="M18.332 14.2012L14.6654 14.2012" stroke="#ABB6CC" stroke-width="2" stroke-linecap="round"/>
</svg>
