<svg width="20" height="20" viewBox="0 0 20 20" fill="none" xmlns="http://www.w3.org/2000/svg">
<path d="M10 6.66675V10.0001L12.0833 12.0834" stroke="#ABB6CC" stroke-width="2" stroke-linecap="round" stroke-linejoin="round"/>
<path d="M4.67012 4.67012L3.96301 3.96301L3.96301 3.96301L4.67012 4.67012ZM3.6148 5.72543L2.61481 5.73046C2.61757 6.27882 3.06142 6.72267 3.60978 6.72542L3.6148 5.72543ZM5.73107 6.73608C6.28335 6.73886 6.73331 6.2934 6.73608 5.74112C6.73886 5.18884 6.2934 4.73888 5.74112 4.73611L5.73107 6.73608ZM4.60413 3.59912C4.60135 3.04684 4.15139 2.60138 3.59912 2.60415C3.04684 2.60693 2.60138 3.05689 2.60415 3.60917L4.60413 3.59912ZM3.56037 9.03836C3.63537 8.49119 3.2526 7.98682 2.70543 7.91182C2.15826 7.83682 1.65389 8.21959 1.57889 8.76676L3.56037 9.03836ZM15.9837 4.01631C12.6563 0.688889 7.2744 0.651626 3.96301 3.96301L5.37722 5.37722C7.89419 2.86025 12.0097 2.87072 14.5695 5.43052L15.9837 4.01631ZM4.01631 15.9837C7.34373 19.3111 12.7256 19.3484 16.037 16.037L14.6228 14.6228C12.1058 17.1397 7.99033 17.1293 5.43052 14.5695L4.01631 15.9837ZM16.037 16.037C19.3484 12.7256 19.3111 7.34373 15.9837 4.01631L14.5695 5.43052C17.1293 7.99033 17.1397 12.1058 14.6228 14.6228L16.037 16.037ZM3.96301 3.96301L2.90769 5.01833L4.32191 6.43254L5.37722 5.37722L3.96301 3.96301ZM3.60978 6.72542L5.73107 6.73608L5.74112 4.73611L3.61983 4.72545L3.60978 6.72542ZM4.61479 5.72041L4.60413 3.59912L2.60415 3.60917L2.61481 5.73046L4.61479 5.72041ZM1.57889 8.76676C1.229 11.3194 2.04395 14.0113 4.01631 15.9837L5.43052 14.5695C3.91586 13.0548 3.29242 10.9932 3.56037 9.03836L1.57889 8.76676Z" fill="#ABB6CC"/>
</svg>
