<svg width="20" height="20" viewBox="0 0 20 20" fill="none" xmlns="http://www.w3.org/2000/svg">
<g clip-path="url(#clip0_1_1320)">
<circle cx="10" cy="10" r="10" fill="#ABB6CC"/>
<path d="M6.66699 11.5C6.11471 11.5 5.66699 11.9477 5.66699 12.5C5.66699 13.0523 6.11471 13.5 6.66699 13.5V11.5ZM10.0003 13.5C10.5526 13.5 11.0003 13.0523 11.0003 12.5C11.0003 11.9477 10.5526 11.5 10.0003 11.5V13.5ZM6.73842 15C6.73842 15.5523 7.18614 16 7.73842 16C8.29071 16 8.73842 15.5523 8.73842 15H6.73842ZM6.66699 9C6.11471 9 5.66699 9.44772 5.66699 10C5.66699 10.5523 6.11471 11 6.66699 11V9ZM8.64224 5.01231L8.496 4.02306L8.64224 5.01231ZM7.75161 5.84357L8.73752 6.01087V6.01087L7.75161 5.84357ZM6.66699 13.5H10.0003V11.5H6.66699V13.5ZM9.02414 6H11.4884V4H9.02414V6ZM6.73842 6.2V10H8.73842V6.2H6.73842ZM6.73842 10V15H8.73842V10H6.73842ZM11.4884 9H7.73842V11H11.4884V9ZM7.73842 9H6.66699V11H7.73842V9ZM13.167 7.5C13.167 8.26456 12.4816 9 11.4884 9V11C13.4539 11 15.167 9.49686 15.167 7.5H13.167ZM11.4884 6C12.4816 6 13.167 6.73544 13.167 7.5H15.167C15.167 5.50314 13.4539 4 11.4884 4V6ZM9.02414 4C8.8608 4 8.67036 3.99729 8.496 4.02306L8.78848 6.00156C8.77316 6.00383 8.7737 6.00228 8.81533 6.00121C8.85976 6.00008 8.91954 6 9.02414 6V4ZM8.73842 6.2C8.73842 6.10129 8.73852 6.04869 8.73964 6.0106C8.74066 5.97582 8.74193 5.98484 8.73752 6.01087L6.76571 5.67626C6.73487 5.85797 6.73842 6.05504 6.73842 6.2H8.73842ZM8.496 4.02306C7.64866 4.14832 6.91721 4.78347 6.76571 5.67626L8.73752 6.01087C8.7349 6.02631 8.7284 6.0297 8.73455 6.02395C8.74118 6.01776 8.75825 6.00603 8.78848 6.00156L8.496 4.02306Z" fill="white"/>
</g>
<defs>
<clipPath id="clip0_1_1320">
<rect width="20" height="20" fill="white"/>
</clipPath>
</defs>
</svg>
